HIERARCHY
ROOT Bip001_Pelvis
{
  OFFSET 7.937 94.8971 -8.5489
  CHANNELS 6 Xposition Yposition Zposition Zrotation Xrotation Yrotation
  JOINT Bip001_Spine
  {
    OFFSET 1.44608e-005 10.4157 -0.0118244
    CHANNELS 3 Zrotation Xrotation Yrotation
    JOINT Bip001_L_Thigh
    {
      OFFSET 11.2582 -10.4157 0.0118432
      CHANNELS 3 Zrotation Xrotation Yrotation
      JOINT Bip001_L_Calf
      {
        OFFSET -0.720717 -44.8687 0.366937
        CHANNELS 3 Zrotation Xrotation Yrotation
        JOINT Bip001_L_Foot
        {
          OFFSET -0.664439 -41.3745 -3.62995
          CHANNELS 3 Zrotation Xrotation Yrotation
          JOINT Bip001_L_Toe0
          {
            OFFSET 0.0541047 -10.4146 13.4033
            CHANNELS 3 Zrotation Xrotation Yrotation
            End Site
            {
              OFFSET -1.04503e-005 0 7.70137
            }
          }
        }
      }
    }
    JOINT Bip001_R_Thigh
    {
      OFFSET -11.2582 -10.4156 0.0118122
      CHANNELS 3 Zrotation Xrotation Yrotation
      JOINT Bip001_R_Calf
      {
        OFFSET 0.72059 -44.8687 0.36676
        CHANNELS 3 Zrotation Xrotation Yrotation
        JOINT Bip001_R_Foot
        {
          OFFSET 0.664321 -41.3745 -3.62979
          CHANNELS 3 Zrotation Xrotation Yrotation
          JOINT Bip001_R_Toe0
          {
            OFFSET -0.05417 -10.4146 13.4033
            CHANNELS 3 Zrotation Xrotation Yrotation
            End Site
            {
              OFFSET -1.04873e-005 0 7.70137
            }
          }
        }
      }
    }
    JOINT Bip001_Spine1
    {
      OFFSET 1.90638e-005 14.8539 1.10727
      CHANNELS 3 Zrotation Xrotation Yrotation
      JOINT Bip001_Spine2
      {
        OFFSET 2.28934e-005 14.7848 -1.7233
        CHANNELS 3 Zrotation Xrotation Yrotation
        JOINT Bip001_Neck
        {
          OFFSET 2.24514e-005 15.6905 -0.498826
          CHANNELS 3 Zrotation Xrotation Yrotation
          JOINT Bip001_L_Clavicle
          {
            OFFSET 6.17691 -0.000591152 0.00852867
            CHANNELS 3 Zrotation Xrotation Yrotation
            JOINT Bip001_L_UpperArm
            {
              OFFSET 11.773 -0.0611878 0.00197697
              CHANNELS 3 Zrotation Xrotation Yrotation
              JOINT Bip001_L_Forearm
              {
                OFFSET 26.4515 0.0817568 -2.19579
                CHANNELS 3 Zrotation Xrotation Yrotation
                JOINT Bip001_L_Hand
                {
                  OFFSET 32.8677 0.156744 1.67112
                  CHANNELS 3 Zrotation Xrotation Yrotation
                  JOINT Bip001_L_Finger0
                  {
                    OFFSET 6.16268 -2.25226 6.01674
                    CHANNELS 3 Zrotation Xrotation Yrotation
                    End Site
                    {
                      OFFSET 4.30499 -1.46662 0.618148
                    }
                  }
                  JOINT Bip001_L_Finger1
                  {
                    OFFSET 11.2957 -0.718374 -0.201963
                    CHANNELS 3 Zrotation Xrotation Yrotation
                    End Site
                    {
                      OFFSET 6.31952 -0.405163 -0.0802303
                    }
                  }
                }
              }
            }
          }
          JOINT Bip001_R_Clavicle
          {
            OFFSET -6.17691 -0.000574027 0.00851165
            CHANNELS 3 Zrotation Xrotation Yrotation
            JOINT Bip001_R_UpperArm
            {
              OFFSET -11.773 -0.0611516 0.00194365
              CHANNELS 3 Zrotation Xrotation Yrotation
              JOINT Bip001_R_Forearm
              {
                OFFSET -26.4514 0.0822334 -2.19736
                CHANNELS 3 Zrotation Xrotation Yrotation
                JOINT Bip001_R_Hand
                {
                  OFFSET -32.8677 0.156817 1.67144
                  CHANNELS 3 Zrotation Xrotation Yrotation
                  JOINT Bip001_R_Finger0
                  {
                    OFFSET -6.1627 -2.25224 6.0167
                    CHANNELS 3 Zrotation Xrotation Yrotation
                    End Site
                    {
                      OFFSET -4.30499 -1.46662 0.618134
                    }
                  }
                  JOINT Bip001_R_Finger1
                  {
                    OFFSET -11.2958 -0.718344 -0.201994
                    CHANNELS 3 Zrotation Xrotation Yrotation
                    End Site
                    {
                      OFFSET -6.31952 -0.405146 -0.0802475
                    }
                  }
                }
              }
            }
          }
          JOINT Bip001_Head
          {
            OFFSET 1.11782e-005 11.4912 2.09908
            CHANNELS 3 Zrotation Xrotation Yrotation
            End Site
            {
              OFFSET 2.95144e-005 21.2823 -2.83069e-005
            }
          }
        }
      }
    }
  }
}
MOTION
Frames:	8
Frame Time:	0.04
7.35963 95.5195 -8.60289 0.182084 -1.73738 4.8238 -0.016438 1.76838 -0.080321 5.43018 -8.67607 7.83209 -0.893937 14.5261 -2.3495 -3.09779 -5.04755 -1.15433 0.671552 -9.86959 0.228079 -7.97568 -5.26963 -0.761882 0.787415 14.7191 0.0422199 1.41855 -8.5085 -11.1588 -1.32648 -11.4227 0.870693 -0.214803 3.53692 -0.167789 -0.215215 3.53692 -0.165655 -0.699695 9.53576 -0.0934021 -30.1488 -3.2928 -14.1495 -48.397 41.6605 5.35491 12.6888 2.34456 -23.6213 -3.71144 -0.316568 -1.38401 1.59028e-015 -6.36111e-015 -0 1.59028e-015 -3.18056e-015 -7.95139e-016 37.114 -1.9398 14.9865 53.5606 37.9718 -21.7843 -4.80463 -14.4749 22.5164 14.2468 0.547978 -13.8396 -3.18055e-015 -3.18055e-015 1.59028e-015 -3.18055e-015 0 4.77083e-015 -3.65531 13.9116 0.877577 
7.30227 95.5176 -8.67075 0.00209338 -1.68675 4.64166 0.0277629 1.74607 -0.0501841 5.65359 -8.8364 7.89558 -0.97898 14.7537 -2.49223 -3.07077 -5.15624 -0.938165 0.676554 -9.86004 0.257507 -7.77776 -5.34158 -0.891844 0.653062 14.5938 0.109253 1.48222 -8.37053 -10.9638 -1.3601 -11.4226 0.899542 -0.134268 3.50446 -0.106573 -0.133834 3.50446 -0.106647 -0.633063 9.28158 -0.284559 -30.1441 -3.11687 -14.0129 -48.2435 41.6983 4.99031 12.4501 2.59444 -22.8577 -4.06839 -0.355462 -1.28147 -3.18055e-015 0 -7.95139e-016 -1.59028e-015 6.36111e-015 -0 37.0225 -1.37562 15.5646 51.2429 38.8562 -19.874 -5.17476 -15.0635 25.0899 13.3155 0.394145 -15.3841 0 0 -4.77083e-015 -1.59028e-015 -3.18056e-015 -1.59028e-015 -3.61594 14.1175 0.70923 
7.37847 95.5133 -8.76374 0.0344474 -1.67822 4.42346 -0.00390106 1.7393 0.0365615 5.5727 -8.85945 7.80092 -0.963856 14.7502 -2.43325 -3.03173 -5.14668 -0.788475 0.68011 -9.85347 0.278342 -7.87561 -5.47247 -1.03062 0.670261 14.6654 0.267844 1.53394 -8.32864 -10.86 -1.38145 -11.4226 0.912738 -0.202188 3.47828 0.0672219 -0.202189 3.47829 0.0672192 -0.412826 9.23073 -0.519799 -30.21 -3.01206 -14.3086 -47.8386 41.5369 4.61849 12.1962 2.76287 -22.4186 -4.29361 -0.361701 -1.22656 -1.59028e-015 0 -0 -1.59028e-015 6.36111e-015 -7.95139e-016 36.7381 -1.11881 15.9473 48.5945 40.0936 -17.4346 -7.64299 -12.6147 28.1268 11.2274 0.570581 -14.0203 2.38542e-015 -9.54166e-015 1.59028e-015 7.95139e-016 -9.54167e-015 1.59028e-015 -3.50941 14.0089 0.520474 
7.41606 95.512 -8.80325 0.0221675 -1.67956 4.2721 -0.039902 1.69436 0.0927301 5.61241 -8.83978 7.96221 -0.94715 14.8179 -2.23251 -3.03123 -5.15265 -1.01128 0.672348 -9.86742 0.230102 -7.86564 -5.4866 -2.20617 0.340268 14.701 0.965516 1.66173 -8.26903 -10.2686 -1.36574 -11.4426 0.954953 -0.274895 3.3885 0.180481 -0.27484 3.38851 0.180487 -0.216771 9.14206 -0.647505 -30.1392 -3.00657 -14.2344 -47.5962 41.5923 4.32576 12.1629 2.71447 -22.3274 -4.31241 -0.379812 -1.23498 1.59028e-015 -9.54166e-015 -0 8.82782e-032 -6.36111e-015 7.95139e-016 36.2102 -0.978894 16.1549 45.6522 39.9518 -14.5564 -11.6026 -9.99447 33.1831 9.61845 1.00089 -12.8286 -7.95139e-016 -3.18055e-015 -1.98785e-015 -7.95139e-016 0 -1.59028e-015 -3.41932 13.9924 0.437645 
7.46529 95.524 -8.79867 -0.0447091 -1.72562 4.15303 -0.0508616 1.64463 0.117532 5.68902 -8.73805 8.18266 -0.944447 14.8661 -2.24563 -2.99663 -5.18364 -1.10112 0.667914 -9.87892 0.198753 -7.8042 -5.32134 -1.00874 0.652688 14.4593 0.358146 1.57606 -8.14565 -10.7735 -1.36083 -11.4273 0.927024 -0.296911 3.28896 0.230481 -0.29683 3.28897 0.230561 -0.399775 9.07998 -0.60053 -29.9687 -2.98492 -14.1009 -47.1552 41.3293 4.03149 12.0225 1.97039 -22.6624 -4.28888 -0.372065 -1.17958 -0 -6.36111e-015 -0 -1.59028e-015 -3.18056e-015 -0 35.8016 -0.982499 16.2761 42.1424 37.7745 -11.1211 -16.3366 -6.72266 40.2907 6.74467 2.11287 -11.328 -0 -3.18055e-015 -0 1.76556e-031 3.18056e-015 -3.18055e-015 -3.1744 13.8428 0.32938 
7.48562 95.5209 -8.77737 -0.010859 -1.92668 4.09832 -0.0651225 1.61357 0.138448 5.71129 -8.46828 8.34771 -0.990449 14.8613 -2.33804 -2.9481 -5.20131 -1.13961 0.667132 -9.88187 0.187073 -7.80288 -5.10581 -1.04668 0.608229 14.4994 0.562275 1.53225 -8.16217 -10.8506 -1.31799 -11.4368 0.904824 -0.319811 3.22678 0.27331 -0.319788 3.22678 0.273399 -0.748104 8.98286 -0.52706 -29.8385 -2.85555 -14.0598 -46.4293 41.0695 3.66383 12.0129 1.90759 -22.9858 -3.95629 -0.336091 -1.1779 4.77083e-015 -3.18055e-015 -1.59028e-015 1.59028e-015 0 -1.59028e-015 35.4456 -0.943899 16.4566 38.629 34.723 -7.47193 -20.358 -5.40476 48.6982 1.90468 2.95162 -8.76112 -9.54166e-015 0 -3.18055e-015 -9.54166e-015 -3.18056e-015 -0 -2.99793 13.6718 0.212324 
7.58266 95.5203 -8.58894 0.297354 -2.15385 4.09385 -0.143264 1.58456 0.167303 5.38994 -7.86602 8.85733 -0.805257 14.4653 -2.76012 -2.94936 -5.12222 -1.29513 0.667697 -9.88426 0.182302 -8.13986 -4.80539 -1.52246 0.609643 14.7487 1.03821 1.51382 -8.42736 -10.784 -1.30849 -11.4416 0.86728 -0.471036 3.16844 0.333659 -0.474136 3.16844 0.333884 -0.914359 8.76903 -0.520754 -29.6104 -2.709 -13.8775 -45.9137 40.8926 3.17129 12.0774 1.71707 -23.2733 -3.89273 -0.342485 -1.22162 -1.76556e-031 6.36111e-015 1.59028e-015 -1.59028e-015 6.36111e-015 3.18055e-015 35.0504 -0.737994 16.6624 35.1022 29.6475 -3.40102 -25.7112 -2.36382 57.5795 -5.70681 3.87185 -5.69864 3.18055e-015 -4.77083e-015 -0 3.18055e-015 -6.36111e-015 -0 -3.02688 13.5096 0.165412 
7.61791 95.5186 -8.59074 0.247542 -2.38326 4.28386 -0.146771 1.55131 0.214903 5.38643 -7.73671 8.37712 -0.793204 14.619 -2.52654 -2.9602 -5.17351 -1.29803 0.66569 -9.8891 0.162439 -8.1048 -4.43919 -1.51205 0.698722 14.6267 1.00423 1.40562 -8.3594 -10.9586 -1.23574 -11.4454 0.841837 -0.473259 3.10176 0.430345 -0.473822 3.10177 0.430525 -0.964316 8.54752 -0.646654 -29.4732 -2.52695 -13.8347 -45.1077 39.3254 1.97012 11.9558 3.03333 -22.9326 -3.74506 -0.270841 -1.65141 8.82781e-032 3.18055e-015 -1.59028e-015 0 0 -3.18055e-015 34.5903 -0.456729 16.9536 32.5576 23.5027 0.438321 -32.9613 0.227799 66.1821 -14.8503 4.68517 -2.17255 -3.18055e-015 4.57205e-015 -7.95139e-016 -3.18055e-015 4.96962e-015 -1.59028e-015 -3.14828 13.0337 0.0529947 
